<svg xmlns="http://www.w3.org/2000/svg" viewBox="0 0 1024 1024"><path d="M 520,948 521,948" stroke="black" fill="none"/><path d="M 502,948" stroke="black" fill="none"/><path d="M 498,948 500,948" stroke="black" fill="none"/><path d="M 527,947" stroke="black" fill="none"/><path d="M 492,947" stroke="black" fill="none"/><path d="M 540,943" stroke="black" fill="none"/><path d="M 545,940 544,941 543,941 542,942 543,941 544,941 545,940 546,940" stroke="black" fill="none"/><path d="M 549,938" stroke="black" fill="none"/><path d="M 553,935 551,937" stroke="black" fill="none"/><path d="M 561,928" stroke="black" fill="none"/><path d="M 459,925" stroke="black" fill="none"/><path d="M 569,917" stroke="black" fill="none"/><path d="M 571,914" stroke="black" fill="none"/><path d="M 575,903" stroke="black" fill="none"/><path d="M 768,873" stroke="black" fill="none"/><path d="M 770,872" stroke="black" fill="none"/><path d="M 773,870 772,871" stroke="black" fill="none"/><path d="M 775,869" stroke="black" fill="none"/><path d="M 780,865 779,866" stroke="black" fill="none"/><path d="M 227,849" stroke="black" fill="none"/><path d="M 226,847" stroke="black" fill="none"/><path d="M 219,831" stroke="black" fill="none"/><path d="M 305,130 304,131 289,131 288,132 284,132 283,133 280,133 279,134 277,134 276,135 274,135 273,136 271,136 270,137 269,137 268,138 266,138 265,139 264,139 263,140 262,140 261,141 260,141 259,142 258,142 257,143 256,143 255,144 254,144 252,146 251,146 250,147 249,147 246,150 245,150 232,163 232,164 228,168 228,169 226,171 226,172 224,174 224,175 223,176 223,177 222,178 222,179 221,180 221,181 220,182 220,183 219,184 219,185 218,186 218,188 217,189 217,191 216,192 216,194 215,195 215,197 214,198 214,202 213,203 213,207 212,208 212,786 213,787 213,792 214,793 214,797 215,798 215,802 216,803 216,805 217,806 217,808 218,809 218,811 219,812 219,813 220,814 220,815 221,816 221,817 222,818 222,819 224,821 224,822 225,823 225,824 227,826 227,827 230,830 230,831 245,846 246,846 249,849 250,849 252,851 253,851 255,853 256,853 257,854 258,854 259,855 260,855 261,856 263,856 264,857 266,857 267,858 268,858 269,859 271,859 272,860 273,860 274,861 276,861 277,862 279,862 280,863 285,863 286,864 442,864 443,865 443,871 444,872 444,876 445,877 445,880 446,881 446,883 447,884 447,885 448,886 448,888 449,889 449,890 450,891 450,892 451,893 451,894 454,897 454,898 456,900 456,901 459,904 459,905 462,908 462,909 466,913 467,913 471,917 472,917 474,919 475,919 476,920 477,920 478,921 479,921 480,922 481,922 482,923 483,923 484,924 485,924 486,925 488,925 489,926 491,926 492,927 496,927 497,928 504,928 505,929 517,929 518,928 525,928 526,927 529,927 530,926 532,926 533,925 535,925 536,924 538,924 540,922 542,922 544,920 545,920 546,919 547,919 550,916 551,916 554,913 555,913 562,906 562,905 565,902 565,901 569,897 569,896 570,895 570,894 571,893 571,892 572,891 572,890 573,889 573,888 574,887 574,885 575,884 575,882 576,881 576,879 577,878 577,875 578,874 578,865 579,864 735,864 736,863 739,863 740,862 743,862 744,861 746,861 747,860 749,860 750,859 752,859 753,858 755,858 756,857 757,857 758,856 760,856 761,855 762,855 763,854 764,854 766,852 767,852 768,851 769,851 770,850 771,850 773,848 774,848 778,844 779,844 789,834 789,833 792,830 792,829 796,825 796,824 797,823 797,822 799,820 799,819 800,818 800,817 801,816 801,815 802,814 802,813 803,812 803,811 804,810 804,808 805,807 805,805 806,804 806,801 807,800 807,798 808,797 808,794 809,793 809,789 810,788 810,782 811,781 811,764 810,763 810,210 809,209 809,204 808,203 808,200 807,199 807,197 806,196 806,193 805,192 805,190 804,189 804,187 803,186 803,185 802,184 802,183 801,182 801,181 800,180 800,179 799,178 799,177 797,175 797,174 796,173 796,172 794,170 794,169 791,166 791,165 787,161 787,160 780,153 779,153 775,149 774,149 772,147 771,147 769,145 768,145 767,144 766,144 764,142 763,142 762,141 761,141 760,140 759,140 758,139 757,139 756,138 755,138 754,137 753,137 752,136 750,136 749,135 748,135 747,134 745,134 744,133 741,133 740,132 737,132 736,131 729,131 728,130" stroke="black" fill="none"/></svg>