<svg xmlns="http://www.w3.org/2000/svg" viewBox="0 0 1024 1024"><path d="M 7,804" stroke="black" fill="none"/><path d="M 44,735" stroke="black" fill="none"/><path d="M 114,733" stroke="black" fill="none"/><path d="M 115,727" stroke="black" fill="none"/><path d="M 191,725" stroke="black" fill="none"/><path d="M 114,725" stroke="black" fill="none"/><path d="M 2,718 2,719" stroke="black" fill="none"/><path d="M 196,711" stroke="black" fill="none"/><path d="M 143,711 146,711 147,712 148,711" stroke="black" fill="none"/><path d="M 134,711" stroke="black" fill="none"/><path d="M 128,711 132,711" stroke="black" fill="none"/><path d="M 35,710" stroke="black" fill="none"/><path d="M 155,704 154,705 112,705 110,707 111,708 113,708 114,709 145,709 146,708 169,708 170,707 170,705 169,705 168,704 162,704 161,705 157,705 156,704" stroke="black" fill="none"/><path d="M 0,704 1,705 0,706 0,709 5,709 6,708 44,708 45,707 46,707 47,706 47,705 44,705 43,704 24,704 23,705 1,705" stroke="black" fill="none"/><path d="M 138,703" stroke="black" fill="none"/><path d="M 21,703 22,703" stroke="black" fill="none"/><path d="M 0,680 0,684 40,684 41,685 61,685 62,686 87,686 88,685 147,685 148,684 170,684 171,683 171,680 120,680 119,681 63,681 62,680" stroke="black" fill="none"/><path d="M 5,659 4,660 0,660 0,663 39,663 40,664 160,664 161,663 169,663 170,662 170,659" stroke="black" fill="none"/><path d="M 24,629 23,630 9,630 8,631 2,631 1,632 0,632 0,633 1,633 2,634 170,634 172,632 172,631 171,630 171,629" stroke="black" fill="none"/><path d="M 105,605 104,606 20,606 19,607 14,607 14,608 13,609 13,611 14,612 21,612 22,611 41,611 42,610 60,610 61,611 91,611 92,610 155,610 156,611 169,611 171,609 170,608 170,607 169,606 131,606 130,605" stroke="black" fill="none"/><path d="M 0,586 0,614 0,613 2,611 2,610 3,609 3,608 4,607 4,606 5,605 5,596 4,595 4,593 3,592 3,590 2,589 2,588" stroke="black" fill="none"/><path d="M 18,584 17,585 13,585 13,588 14,589 34,589 35,590 79,590 80,589 117,589 118,588 170,588 170,586 168,584 77,584 76,585 19,585" stroke="black" fill="none"/><path d="M 64,563 63,564 48,564 47,565 30,565 29,566 13,566 12,567 10,567 8,569 6,569 6,570 12,570 13,571 22,571 23,570 48,570 49,569 67,569 68,568 76,568 77,567 119,567 120,568 138,568 139,569 165,569 166,570 170,570 170,566 169,565 137,565 136,564 108,564 107,563" stroke="black" fill="none"/><path d="M 45,548 44,549 18,549 17,550 6,550 5,551 0,551 0,552 3,552 4,553 47,553 48,552 93,552 94,553 164,553 165,552 170,552 171,551 171,550 170,549 169,549 168,548 163,548 162,549 102,549 101,548" stroke="black" fill="none"/><path d="M 128,480 123,485 122,485 117,490 117,500 118,501 118,504 125,511 130,511 133,508 134,508 136,506 137,506 137,505 128,505 126,503 126,502 125,501 125,499 127,497 129,497 130,496 132,496 133,495 134,495 136,493 137,493 138,492 139,492 139,489 135,485 135,484 134,484 131,481 130,481 129,480" stroke="black" fill="none"/><path d="M 104,480 102,482 101,482 99,484 98,484 93,489 93,492 97,496 98,496 99,497 100,497 101,498 104,498 105,499 106,499 108,501 108,503 105,506 104,506 102,504 100,504 99,503 95,503 94,504 94,508 95,509 96,509 97,510 100,510 101,511 105,511 107,509 108,509 114,503 114,502 115,501 115,500 114,499 114,497 111,494 110,494 109,493 107,493 106,492 103,492 102,491 101,491 100,490 100,488 102,486 103,486 104,485 106,487 107,487 108,488 111,488 113,486 113,484 112,484 111,483 110,483 109,482 108,482 107,481 106,481 105,480" stroke="black" fill="none"/><path d="M 77,480 76,481 75,481 74,482 73,482 72,483 71,483 69,485 69,486 68,487 68,488 71,488 72,487 73,487 74,486 78,486 81,489 81,490 82,491 82,492 81,493 80,493 79,492 75,492 74,493 72,493 71,494 70,494 69,495 68,495 67,496 67,497 66,498 66,504 67,505 67,506 72,511 76,511 78,509 79,509 81,507 83,509 83,510 84,511 86,511 87,510 88,510 90,508 91,508 91,505 90,504 89,504 88,503 88,484 85,484 84,483 83,483 82,482 81,482 80,481 79,481 78,480" stroke="black" fill="none"/><path d="M 166,467 163,470 162,470 161,471 160,471 159,472 158,472 157,473 156,473 153,476 154,477 161,477 162,478 162,485 161,486 161,497 162,498 162,503 161,504 161,507 158,510 158,512 159,512 160,513 166,513 167,512 168,512 169,511 171,511 172,510 172,509 169,506 169,505 168,504 168,498 169,497 169,490 168,489 168,473 169,472 169,467" stroke="black" fill="none"/><path d="M 19,466 18,467 14,467 13,468 8,468 7,467 4,467 3,468 0,468 0,473 4,473 5,474 5,506 4,507 4,508 1,511 0,511 0,514 3,514 4,515 4,516 11,516 17,510 16,509 15,509 13,507 13,495 14,494 15,495 17,495 18,496 19,495 22,495 23,494 24,494 26,492 27,492 32,487 32,486 33,485 33,477 32,476 32,475 29,472 29,471 28,470 27,470 25,468 24,468 23,467 21,467 20,466" stroke="black" fill="none"/><path d="M 45,465 44,466 43,466 42,467 41,467 40,468 38,468 35,471 35,472 37,474 37,476 38,477 38,500 39,501 39,505 38,506 38,507 36,509 36,511 37,511 39,513 39,514 40,514 46,508 46,502 45,501 45,490 47,488 48,488 49,487 51,487 54,490 54,494 55,495 55,503 54,504 54,511 53,512 53,513 52,514 52,515 51,516 51,521 53,521 58,516 58,515 59,514 59,513 61,511 61,508 62,507 62,505 61,504 61,488 60,487 60,486 54,480 51,480 45,486 44,485 44,476 45,475 45,467 46,466 46,465" stroke="black" fill="none"/><path d="M 188,463" stroke="black" fill="none"/><path d="M 108,463" stroke="black" fill="none"/><path d="M 94,463" stroke="black" fill="none"/><path d="M 192,462" stroke="black" fill="none"/><path d="M 127,462 129,462" stroke="black" fill="none"/><path d="M 18,416 19,416" stroke="black" fill="none"/><path d="M 227,408" stroke="black" fill="none"/><path d="M 0,0 0,161 2,159 3,159 4,158 15,158 16,159 18,159 19,160 20,160 21,161 22,161 25,164 26,164 27,165 27,166 29,168 29,169 28,170 24,170 23,171 22,170 21,170 16,165 15,165 14,164 13,164 12,163 7,163 6,164 4,164 2,166 0,164 0,197 1,198 1,199 2,200 2,202 1,203 0,203 0,238 1,238 2,239 3,239 4,240 5,240 7,242 8,242 13,247 14,247 15,248 15,249 14,250 11,250 10,249 9,249 8,248 6,248 4,246 3,246 0,243 0,283 1,283 2,284 1,285 0,285 0,364 2,364 3,363 31,363 32,364 43,364 44,363 109,363 110,364 125,364 126,363 180,363 181,362 202,362 203,363 207,363 208,364 210,364 211,365 212,365 214,367 215,367 217,369 218,369 222,373 222,374 224,376 224,377 226,379 226,380 227,381 227,382 228,383 228,385 229,386 229,389 230,390 230,407 229,408 229,411 228,412 228,414 227,415 227,416 226,417 225,416 225,414 226,413 226,410 226,412 225,413 225,414 224,415 221,412 221,411 218,411 217,410 216,410 215,409 214,410 214,411 213,412 211,410 210,411 208,411 207,412 206,411 205,412 204,411 202,413 201,413 200,412 199,413 197,413 196,414 195,414 194,415 193,415 192,414 190,414 188,416 187,415 173,415 172,416 164,416 163,415 162,416 161,416 160,415 159,416 151,416 150,415 149,415 148,416 147,416 146,417 145,416 138,416 137,415 128,415 127,416 108,416 107,415 104,415 103,416 97,416 96,415 95,415 94,416 93,416 92,415 88,415 87,416 77,416 76,415 75,416 64,416 63,417 61,417 60,416 59,417 58,417 57,416 56,417 51,417 50,416 49,417 48,416 47,416 46,417 45,416 44,417 42,417 41,416 24,416 23,417 22,417 21,418 19,418 18,419 16,419 14,417 10,417 9,418 8,418 7,419 6,418 4,418 3,417 0,417 0,435 8,435 9,436 9,437 8,438 3,438 3,439 2,440 0,440 0,448 1,448 2,449 1,450 0,450 0,457 2,457 3,458 30,458 31,459 32,459 33,458 35,458 36,459 44,459 45,458 46,459 47,459 48,460 48,459 50,457 53,457 55,459 55,460 54,461 53,460 52,461 51,461 50,460 50,461 61,461 62,460 65,460 66,461 67,461 68,460 69,460 70,461 87,461 88,460 89,461 91,461 92,460 94,460 95,461 96,460 97,461 98,460 99,461 100,461 101,460 103,460 104,461 105,461 106,462 106,461 107,460 108,460 109,461 110,460 112,462 113,461 114,461 115,462 116,462 117,461 119,461 120,462 120,461 121,460 122,461 124,461 123,461 122,460 122,458 123,457 126,460 129,460 128,459 128,458 127,457 128,456 129,456 131,458 131,459 132,460 133,460 134,461 135,460 136,461 136,462 137,461 138,461 139,462 140,461 141,462 142,461 143,462 144,461 161,461 162,460 172,460 173,461 173,462 174,462 174,461 175,460 183,460 184,461 184,460 185,459 186,459 187,460 189,460 190,459 191,459 192,460 193,459 194,460 195,460 196,459 211,459 211,454 212,453 213,454 213,457 214,458 214,463 215,464 215,477 216,478 216,492 212,496 211,496 209,498 208,498 207,499 206,499 204,501 203,501 202,502 201,502 200,503 199,503 197,505 197,507 198,508 199,508 200,509 201,509 202,510 203,510 205,512 206,512 207,513 208,513 215,520 215,527 216,528 216,563 211,568 210,568 209,569 208,569 205,572 204,572 203,573 202,573 201,574 199,574 198,575 197,575 196,576 196,577 198,579 199,579 200,580 201,580 202,581 203,581 204,582 205,582 207,584 208,584 214,590 214,591 215,592 215,620 212,623 211,623 209,625 208,625 207,626 206,626 205,627 203,627 202,628 200,628 199,629 198,629 197,630 194,630 193,631 192,631 190,633 191,634 192,634 193,635 194,635 195,636 196,636 197,637 198,637 199,638 200,638 201,639 202,639 205,642 206,642 212,648 212,649 213,650 213,652 214,653 214,657 215,658 215,682 216,683 216,688 210,694 209,694 207,696 206,696 205,697 204,697 203,698 202,698 201,699 199,699 198,700 197,700 196,701 196,703 212,719 212,720 213,721 213,722 214,723 214,727 215,728 215,754 214,755 214,767 213,768 212,768 211,767 210,767 209,766 210,765 212,765 212,725 211,724 211,723 209,721 210,720 209,721 202,714 201,714 200,713 201,714 200,715 201,716 201,717 208,724 208,725 207,726 206,726 206,727 205,728 204,728 203,727 203,723 202,724 197,724 196,725 195,725 194,726 193,726 192,727 190,727 189,728 187,728 186,727 185,727 184,728 183,727 183,723 183,724 182,725 173,725 172,724 167,724 166,723 161,723 161,724 160,725 159,724 159,723 158,722 159,721 162,721 160,721 159,720 159,721 158,722 157,722 156,721 156,720 155,720 154,721 153,720 147,720 146,719 145,719 144,718 131,718 131,719 129,721 128,721 127,720 126,720 125,721 124,721 124,723 120,727 119,727 119,728 118,729 116,729 116,732 117,733 117,734 116,735 116,737 114,739 113,739 112,738 112,739 110,741 109,740 109,739 110,738 110,736 111,735 111,720 110,719 110,717 109,716 109,714 108,713 108,712 106,710 106,709 103,706 103,705 99,701 98,701 95,698 94,698 93,697 92,697 91,696 90,696 89,695 86,695 85,694 72,694 71,695 69,695 68,696 66,696 65,697 64,697 62,699 61,699 57,703 56,703 49,710 49,711 48,712 48,714 47,715 47,717 46,718 46,723 45,724 45,731 46,732 46,737 45,738 43,738 42,737 29,737 28,736 29,735 31,735 32,734 33,735 33,733 35,731 37,731 37,725 36,724 32,724 31,723 31,720 30,720 29,719 25,719 24,720 23,720 20,723 19,722 19,721 18,720 18,722 17,723 16,722 16,721 11,721 10,722 9,721 9,720 8,720 7,719 7,721 6,722 5,721 5,719 5,720 3,722 0,722 0,731 1,731 2,732 1,733 0,733 0,740 1,741 0,742 0,776 22,776 23,777 67,777 68,776 82,776 83,777 151,777 152,776 174,776 175,775 205,775 206,776 208,776 209,777 210,777 211,778 212,778 213,779 214,779 216,781 217,781 222,786 222,787 225,790 225,791 226,792 226,793 227,794 227,795 228,796 228,799 229,800 229,805 230,806 230,817 229,818 229,822 228,823 227,822 227,816 228,815 227,814 227,806 224,803 223,804 223,805 222,806 218,806 217,805 214,805 213,804 212,804 211,805 207,805 206,806 205,806 204,807 201,807 200,806 199,806 199,807 198,808 197,808 196,807 194,807 194,808 193,809 192,809 191,808 188,808 187,809 182,809 181,808 180,808 179,809 178,809 177,808 175,808 174,807 174,808 173,809 171,807 170,808 169,808 168,809 167,809 166,808 165,808 164,809 161,809 159,807 157,807 159,807 160,808 159,809 148,809 147,810 146,810 145,809 144,809 143,808 142,808 141,809 140,808 139,808 140,808 141,809 140,810 138,810 136,808 127,808 126,807 120,807 119,808 112,808 111,807 108,807 107,808 106,808 105,807 96,807 95,808 94,808 93,807 92,807 91,806 89,806 88,807 87,807 86,808 85,807 72,807 71,808 63,808 62,807 52,807 51,808 48,808 47,807 46,808 45,807 24,807 23,808 17,808 16,807 12,807 11,808 7,808 6,807 5,807 3,809 1,809 0,810 0,905 0,900 1,899 2,900 2,908 1,909 1,910 0,911 0,1023 1023,1023 1023,804 1022,805 1021,804 1021,803 1023,801 1023,562 1021,562 1020,563 1019,563 1018,564 1017,564 1016,565 1015,565 1013,567 1012,566 1012,562 1015,559 1016,559 1017,558 1018,558 1019,557 1020,557 1021,556 1023,556 1023,411 1021,411 1020,412 1018,412 1017,413 1016,413 1014,415 1013,415 1008,420 1008,421 1007,422 1007,423 1006,424 1006,426 1005,427 1005,428 1004,429 1004,432 1003,433 1003,436 1002,437 1002,443 1001,444 1001,448 1000,449 1000,450 999,451 998,450 998,445 997,444 997,439 996,438 996,434 995,433 995,430 994,429 994,427 993,426 993,424 992,423 992,422 991,421 991,420 985,414 984,414 983,413 982,413 981,412 980,412 979,411 978,411 977,410 974,410 973,409 970,409 969,408 964,408 963,407 960,407 959,406 958,406 957,405 958,404 959,404 960,403 964,403 965,402 969,402 970,401 973,401 974,400 977,400 978,399 979,399 980,398 981,398 982,397 983,397 984,396 985,396 989,392 989,391 991,389 991,388 992,387 992,386 993,385 993,383 994,382 994,381 995,380 995,377 996,376 996,373 997,372 997,369 998,368 998,364 999,363 999,360 1000,359 1001,360 1001,364 1002,365 1002,369 1003,370 1003,375 1004,376 1004,379 1005,380 1005,383 1006,384 1006,385 1007,386 1007,388 1009,390 1009,391 1015,397 1016,397 1017,398 1018,398 1019,399 1020,399 1021,400 1023,400 1023,0" stroke="black" fill="none"/></svg>